<!DOCTYPE svg PUBLIC "-//W3C//DTD SVG 1.1//EN" "http://www.w3.org/Graphics/SVG/1.1/DTD/svg11.dtd">

<!-- Uploaded to: SVG Repo, www.svgrepo.com, Transformed by: SVG Repo Mixer Tools -->
<svg version="1.1" id="Uploaded to svgrepo.com" xmlns="http://www.w3.org/2000/svg" xmlns:xlink="http://www.w3.org/1999/xlink" width="64px" height="64px" viewBox="0 0 32 32" xml:space="preserve" fill="#ffffff" stroke="#ffffff">

<g id="SVGRepo_bgCarrier" stroke-width="0"/>

<g id="SVGRepo_tracerCarrier" stroke-linecap="round" stroke-linejoin="round"/>

<g id="SVGRepo_iconCarrier"> <style type="text/css"> .linesandangles_een{fill:#ffffff;} </style> <path class="linesandangles_een" d="M5,2v28h22V2H5z M25,28H7V4h18V28z M15,6H9v6h6V6z M13,10h-2V8h2V10z M23,10h-7V8h7V10z M15,13 H9v6h6V13z M13,17h-2v-2h2V17z M23,17h-7v-2h7V17z M15,20H9v6h6V20z M13,24h-2v-2h2V24z M23,24h-7v-2h7V24z"/> </g>

</svg>